# xmcd
#
# Track frame offsets: 
#        150
#        18343
#        40989
#        69000
#        87525
#        105661
#        120925
#        138150
#        146580
#        168019
#        189506
#        209615
#        227695
#        251109
#        265067
#        280565
#
# Disc length: 4035 seconds
#
# Revision: 3
# Processed by: cddbd v1.5.2PL0 Copyright (c) Steve Scherf et al.
# Submitted via: ExactAudioCopy v1.0b2
#
DISCID=d50fc110,e80fe010
DTITLE=Rob Tognoni Band - Live at the twilight
DYEAR=1999
DGENRE=Blues-Rock
TTITLE0=Everlasting lovin boy
TTITLE1=Dark angel
TTITLE2=Crossword blues
TTITLE3=Jim Beam blues
TTITLE4=Sunburn
TTITLE5=Keep your head above water
TTITLE6=Lil' melody
TTITLE7=Peregian
TTITLE8=Roosevelt and Ira Lee
TTITLE9=I like to dress like Batman
TTITLE10=Don't be too hard on me
TTITLE11=The sinner
TTITLE12=Itty bitty mama
TTITLE13=Bad girl
TTITLE14=Black is white
TTITLE15=My acid is Kickin in
EXTD=
EXTT0=
EXTT1=
EXTT2=
EXTT3=
EXTT4=
EXTT5=
EXTT6=
EXTT7=
EXTT8=
EXTT9=
EXTT10=
EXTT11=
EXTT12=
EXTT13=
EXTT14=
EXTT15=
PLAYORDER=
